<svg version="1.2" xmlns="http://www.w3.org/2000/svg" viewBox="0 0 138 138" width="138" height="138">
	<title>pp-icon-2</title>
	<style>
		.s0 { fill: #ffd4be } 
		.s1 { fill: #fff100 } 
		.s2 { fill: #687673 } 
		.s3 { fill: #e7421e } 
		.s4 { fill: #40ffdb } 
		.s5 { fill: #98a1b3 } 
		.s6 { fill: #000000 } 
	</style>
	<path class="s0" d="m51.1 71h11l10.7 4.5c1.8 0.8 2.7 3 1.9 4.9v0.1c-0.8 1.9-2.9 2.8-4.8 2-3-1.1-7-2.7-7-2.7l10.2 4c2.2 0.9 4.6 1 6.8 0.5l10.5-2.4c1.9-0.5 3.8 0.8 4.2 2.7 0.4 1.9-0.7 3.7-2.5 4.2l-12.6 3.2c-2.3 0.7-4.8 0.5-7.1-0.4l-16.1-6.5h-5.2v-14.1z"/>
	<path class="s1" d="m51.1 71h11l10.7 4.5c1.8 0.8 2.7 3 1.9 4.9v0.1c-0.8 1.9-2.9 2.8-4.8 2-3-1.1-7-2.7-7-2.7l10.2 4c2.2 0.9 4.6 1 6.8 0.5l10.5-2.4c1.9-0.5 3.8 0.8 4.2 2.7 0.4 1.9-0.7 3.7-2.5 4.2l-12.6 3.2c-2.3 0.7-4.8 0.5-7.1-0.4l-16.1-6.5h-5.2v-14.1z"/>
	<path class="s2" d="m43.1 68.5h8v18.7h-8z"/>
	<path class="s3" d="m64.8 59.4v12.8l-2.7-1.2h-6.6v-11.6h9.3z"/>
	<path class="s4" d="m74.2 52.5v24.1q-0.6-0.7-1.4-1.1l-8-3.3v-19.8l9.4 0.1z"/>
	<path class="s3" d="m83.5 64.9v18.6l-3.6 0.8c-1.9 0.4-3.9 0.4-5.7-0.1v-2.8q0.3-0.4 0.5-0.9v-0.1c0.6-1.3 0.3-2.8-0.5-3.8v-11.7z"/>
	<path class="s5" d="m88.6 54.9c0 0.9-0.7 1.6-1.6 1.6-0.9 0-1.6-0.7-1.6-1.6 0-0.9 0.7-1.6 1.6-1.6 0.9 0 1.6 0.7 1.6 1.6z"/>
	<path class="s5" d="m82.8 47.2c0 0.9-0.7 1.6-1.6 1.6-0.9 0-1.6-0.7-1.6-1.6 0-0.9 0.7-1.6 1.6-1.6 0.9 0 1.6 0.7 1.6 1.6z"/>
	<path class="s6" d="m95.7 84.4c-0.3-1.2-1-2.3-2-3-1.1-0.6-2.3-0.9-3.5-0.6l-5.6 1.3v-2.3c1.1-1.1 2.3-2.5 3.1-3.8 1.4-2.2 2.5-4.7 3.1-7.3 0.6-3.1 0.7-6.4 0-9.5-0.1-0.6-0.7-1-1.3-0.9-0.5 0.2-0.9 0.7-0.8 1.3 0.6 2.8 0.6 5.8 0 8.6-0.5 2.4-1.5 4.6-2.8 6.7-0.4 0.6-0.8 1.2-1.3 1.8v-11.8c0-0.6-0.5-1.1-1.1-1.1h-8.3v-11.3c0-0.6-0.4-1.1-1-1.1h-9.4c-0.2 0-0.5 0.1-0.7 0.3-0.2 0.2-0.3 0.4-0.3 0.7v5.9h-8.3c-0.6 0-1.1 0.5-1.1 1.1v10.6h-2.3v-1.5c0-0.6-0.5-1.1-1-1.1h-1.1q-0.3-1.5-0.3-3.1-0.1-3.8 1.1-7.3 0.3-0.8 0.7-1.6c0.2-0.6 0-1.2-0.5-1.4-0.5-0.3-1.2-0.1-1.4 0.5q-0.4 0.9-0.7 1.8c-1 2.6-1.4 5.3-1.3 8.1q0 1.5 0.3 3h-4.8c-0.6 0-1 0.5-1 1.1v18.7c0 0.6 0.4 1.1 1 1.1h8c0.5 0 1-0.5 1-1.1v-1h3.9l16 6.4c1.5 0.6 3.1 0.9 4.6 0.9q1.6 0 3.2-0.4l12.5-3.2c2.4-0.7 3.9-3.1 3.4-5.5zm-13.2-18.4v16.6l-2.8 0.7q-0.5 0.1-0.9 0.1c-1.2 0.2-2.4 0.2-3.6-0.1q0 0 0 0v-1.6c0.8-1.2 1.1-2.7 0.7-4.1q-0.2-0.6-0.5-1.2-0.1-0.1-0.2-0.2v-10.2h7.3zm-16.6-12.5h7.2v21l-4-1.7-3.2-1.3v-18zm-9.4 7h7.3v10.1l-1.3-0.5q-0.2-0.1-0.4-0.1h-5.6v-9.5zm-6.5 25.7h-5.8v-16.6h4.9q0 0 0 0 0 0 0 0h0.9v16.6zm41.8 1.6l-12.5 3.2c-2.2 0.6-4.4 0.4-6.5-0.4l-16.2-6.4q-0.1-0.1-0.3-0.1h-4.2v-12h9.8l6.8 2.9 3.7 1.5c1.3 0.6 1.9 2.1 1.4 3.5q-0.2 0.4-0.4 0.7c-0.7 0.9-1.8 1.2-2.8 1q-0.1-0.1-0.2-0.1l-7-2.7q-0.1-0.1-0.1-0.1c-0.6-0.2-1.2 0.1-1.4 0.6-0.2 0.6 0.1 1.2 0.6 1.4 0 0 4 1.6 7 2.8q0.1 0 0.2 0l2.3 0.9c0.7 0.3 1.4 0.6 2.2 0.8q1.9 0.5 3.8 0.4 1.1-0.1 2.2-0.3l3.6-0.9 6.8-1.6c0.7-0.1 1.4 0 1.9 0.4 0.6 0.3 1 0.9 1.1 1.6 0.3 1.3-0.5 2.6-1.8 2.9z"/>
	<path class="s6" d="m55.5 49.2q0.4 0 0.7-0.3c1.8-1.7 4.1-3.1 6.4-3.9 2.6-1 5.4-1.4 8.1-1.2q3 0.2 5.8 1.3c0.5 0.2 1.1-0.1 1.3-0.7 0.2-0.5-0.1-1.1-0.6-1.3q-3-1.2-6.3-1.4c-3.1-0.2-6.2 0.2-9 1.3-2.6 0.9-5.1 2.4-7.1 4.3-0.5 0.4-0.5 1.1-0.1 1.6 0.2 0.2 0.5 0.3 0.8 0.3z"/>
	<path class="s6" d="m79.3 56.8q0.3 0.3 0.7 0.3c0.3 0 0.6-0.2 0.8-0.4l8.6-10.1c0.4-0.4 0.3-1.1-0.1-1.5-0.5-0.4-1.1-0.3-1.5 0.1l-8.6 10.1c-0.4 0.4-0.4 1.1 0.1 1.5z"/>
	<path class="s6" d="m87 52.3c-1.4 0-2.6 1.2-2.6 2.6 0 1.5 1.2 2.7 2.6 2.7 1.5 0 2.6-1.2 2.6-2.7 0-1.4-1.1-2.6-2.6-2.6zm0 3.2c-0.3 0-0.5-0.3-0.5-0.6 0-0.3 0.2-0.5 0.5-0.5 0.3 0 0.6 0.2 0.6 0.5 0 0.3-0.3 0.6-0.6 0.6z"/>
	<path class="s6" d="m81.2 49.9c1.4 0 2.6-1.2 2.6-2.7 0-1.5-1.2-2.7-2.6-2.7-1.5 0-2.6 1.2-2.6 2.7 0 1.5 1.1 2.7 2.6 2.7zm0-3.2c0.3 0 0.5 0.2 0.5 0.5 0 0.3-0.2 0.6-0.5 0.6-0.3 0-0.5-0.3-0.5-0.6 0-0.3 0.2-0.5 0.5-0.5z"/>
	<path class="s6" d="m51.8 51.7c0.1 0.4 0.5 0.7 1 0.7 0.4-0.1 0.8-0.4 0.9-0.8 0.1-0.4 0-0.9-0.3-1.1-0.4-0.3-0.9-0.3-1.3-0.1-0.4 0.3-0.5 0.8-0.3 1.3z"/>
</svg>