<svg version="1.2" xmlns="http://www.w3.org/2000/svg" viewBox="0 0 138 138" width="138" height="138">
	<title>pp-icon-3</title>
	<defs>
		<clipPath clipPathUnits="userSpaceOnUse" id="cp1">
			<path d="m42.84 40.97h55.99v55.99h-55.99z"/>
		</clipPath>
	</defs>
	<style>
		.s0 { fill: #000000 } 
		.s1 { fill: #ffffff } 
		.s2 { fill: #43ffdc } 
		.s3 { fill: #ff3c00 } 
		.s4 { fill: #fbec00 } 
	</style>
	<g id="Clip-Path" clip-path="url(#cp1)">
		<g>
			<path class="s0" d="m77.5 70.6l-0.4-0.2q-0.2-0.1-0.3-0.3-0.1-0.2-0.1-0.4 0.1-0.7 0-1.5 0-0.2 0.1-0.4 0.1-0.2 0.3-0.3l0.4-0.2q0.1 0 0.2-0.2 0.1-0.1 0.1-0.2 0-0.1 0-0.3 0-0.1-0.1-0.2l-1.1-1.9q-0.1-0.2-0.4-0.3-0.3 0-0.6 0.1l-0.4 0.2q-0.2 0.1-0.4 0.1-0.2 0-0.4-0.2-0.6-0.4-1.3-0.7-0.2-0.1-0.3-0.2-0.1-0.2-0.1-0.4v-0.5q0-0.2-0.2-0.4-0.3-0.2-0.5-0.2h-2.3q-0.3 0-0.5 0.2-0.2 0.2-0.2 0.4v0.5q0 0.2-0.1 0.4-0.1 0.1-0.3 0.2-0.8 0.3-1.4 0.7-0.1 0.2-0.4 0.2-0.2 0-0.4-0.1l-0.4-0.2q-0.2-0.1-0.5-0.1-0.3 0.1-0.4 0.3l-1.2 1.9q0 0.1-0.1 0.2 0 0.2 0.1 0.3 0 0.1 0.1 0.2 0.1 0.2 0.2 0.2l0.4 0.2q0.2 0.1 0.3 0.3 0.1 0.2 0.1 0.4-0.2 0.8 0 1.5 0 0.2-0.1 0.4-0.1 0.2-0.3 0.3l-0.4 0.2q-0.1 0.1-0.2 0.2-0.1 0.1-0.1 0.2-0.1 0.1-0.1 0.3 0.1 0.1 0.1 0.2l1.2 1.9q0.1 0.2 0.4 0.3 0.3 0.1 0.5-0.1l0.4-0.2q0.2-0.1 0.4-0.1 0.3 0.1 0.4 0.2 0.6 0.4 1.4 0.7 0.2 0.1 0.3 0.3 0.1 0.1 0.1 0.3v0.5q0 0.3 0.2 0.5 0.2 0.2 0.5 0.2h2.3q0.2 0 0.5-0.2 0.2-0.2 0.2-0.5v-0.5q0-0.2 0.1-0.3 0.1-0.2 0.3-0.3 0.7-0.3 1.3-0.7 0.2-0.1 0.4-0.2 0.2 0 0.4 0.1l0.5 0.2q0.2 0.2 0.5 0.1 0.3-0.1 0.4-0.3l1.1-1.9q0.1-0.1 0.1-0.2 0-0.2 0-0.3 0-0.1-0.1-0.2-0.1-0.1-0.2-0.2zm-6.7 1c-0.5 0-1-0.2-1.4-0.5-0.5-0.2-0.8-0.7-1-1.1-0.2-0.5-0.2-1-0.1-1.5 0.1-0.6 0.3-1 0.7-1.4 0.3-0.4 0.8-0.6 1.3-0.7 0.5-0.1 1.1-0.1 1.5 0.1 0.5 0.2 0.9 0.6 1.2 1 0.3 0.4 0.5 0.9 0.5 1.5 0 0.7-0.3 1.3-0.8 1.8-0.5 0.5-1.2 0.8-1.9 0.8z"/>
			<path class="s1" d="m70.8 55c3.4 0 6.2-2.8 6.2-6.2 0-3.3-2.8-6.1-6.2-6.1-3.3 0-6.1 2.8-6.1 6.1 0 3.4 2.8 6.2 6.1 6.2z"/>
			<path class="s2" d="m91 75.1c3.3 0 6.1-2.8 6.1-6.1 0-3.4-2.8-6.2-6.1-6.2-3.4 0-6.2 2.8-6.2 6.2 0 3.3 2.8 6.1 6.2 6.1z"/>
			<path class="s3" d="m50.7 75.1c3.4 0 6.1-2.8 6.1-6.1 0-3.4-2.7-6.2-6.1-6.2-3.4 0-6.1 2.8-6.1 6.2 0 3.3 2.7 6.1 6.1 6.1z"/>
			<path class="s4" d="m70.8 95.2c3.4 0 6.2-2.7 6.2-6.1 0-3.4-2.8-6.1-6.2-6.1-3.3 0-6.1 2.7-6.1 6.1 0 3.4 2.8 6.1 6.1 6.1z"/>
			<path class="s0" d="m63 70.8q-0.1 0.3 0 0.6 0 0.3 0.2 0.6l1.1 1.8c0.2 0.4 0.6 0.6 1 0.8 0.4 0.1 0.8 0 1.1-0.2l0.4-0.2q0.6 0.5 1.3 0.8v0.3c0 0.4 0.2 0.8 0.5 1.1 0.3 0.3 0.7 0.4 1.1 0.4h2.3c0.4 0 0.8-0.1 1.1-0.4 0.3-0.3 0.4-0.7 0.4-1.1v-0.3q0.8-0.3 1.4-0.8l0.3 0.2c0.4 0.2 0.8 0.3 1.2 0.2 0.4-0.1 0.7-0.4 1-0.7l1.1-1.9q0.1-0.3 0.2-0.6 0-0.3 0-0.6-0.1-0.3-0.3-0.6-0.2-0.2-0.5-0.4l-0.3-0.1q0.1-0.7 0-1.5l0.3-0.1q0.3-0.2 0.5-0.4 0.2-0.3 0.3-0.6 0-0.3 0-0.6-0.1-0.3-0.2-0.6l-1.1-1.8c-0.3-0.4-0.6-0.6-1-0.7-0.4-0.1-0.8-0.1-1.2 0.1l-0.3 0.2q-0.6-0.5-1.4-0.8v-0.3c0-0.4-0.1-0.8-0.4-1.1-0.3-0.3-0.7-0.4-1.1-0.4h-2.3c-0.4 0-0.8 0.2-1.1 0.4-0.3 0.3-0.5 0.7-0.5 1.1v0.3q-0.7 0.3-1.3 0.8l-0.4-0.2c-0.3-0.2-0.7-0.2-1.1-0.1-0.4 0.1-0.8 0.3-1 0.7l-1.1 1.8q-0.2 0.3-0.2 0.6-0.1 0.3 0 0.6 0.1 0.3 0.3 0.6 0.2 0.2 0.5 0.4l0.3 0.1q-0.1 0.8 0 1.5l-0.3 0.1q-0.3 0.2-0.5 0.4-0.2 0.3-0.3 0.6zm2.8-1.8q0-0.4 0-0.7 0.1-0.5-0.1-0.9-0.3-0.4-0.7-0.6l-0.2-0.1 0.9-1.6 0.3 0.2q0.4 0.2 0.9 0.2 0.5-0.1 0.9-0.3 0.5-0.4 1.1-0.7 0.4-0.1 0.7-0.5 0.3-0.4 0.3-0.9v-0.3h1.9v0.3q0 0.5 0.3 0.9 0.3 0.4 0.7 0.5 0.6 0.3 1.1 0.7 0.4 0.2 0.9 0.3 0.5 0 0.9-0.2l0.3-0.2 0.9 1.6-0.2 0.1q-0.5 0.2-0.7 0.6-0.2 0.5-0.1 0.9 0 0.3 0 0.7 0 0.3 0 0.6-0.1 0.5 0.1 0.9 0.2 0.4 0.7 0.7l0.2 0.1-1 1.5-0.2-0.1q-0.5-0.3-0.9-0.2-0.5 0-0.9 0.3-0.5 0.4-1.1 0.6-0.5 0.2-0.7 0.6-0.3 0.4-0.3 0.8v0.3h-1.9v-0.3q0-0.4-0.3-0.8-0.3-0.4-0.7-0.6-0.6-0.2-1.1-0.6-0.4-0.3-0.9-0.3-0.5-0.1-0.9 0.2l-0.3 0.1-0.9-1.5 0.2-0.1q0.4-0.3 0.7-0.7 0.2-0.4 0.1-0.9 0-0.3 0-0.6z"/>
			<path class="s0" d="m70.8 72.5c0.7 0 1.4-0.2 2-0.6 0.6-0.4 1-1 1.3-1.6 0.2-0.6 0.3-1.3 0.2-2-0.2-0.7-0.5-1.3-1-1.8-0.5-0.5-1.1-0.8-1.8-1-0.7-0.1-1.4 0-2 0.2-0.6 0.3-1.2 0.7-1.6 1.3-0.4 0.6-0.6 1.3-0.6 2 0 0.9 0.4 1.8 1.1 2.4 0.6 0.7 1.5 1.1 2.4 1.1zm0-5.3q0.6 0 1 0.3 0.4 0.3 0.7 0.8 0.2 0.5 0.1 1-0.2 0.5-0.5 0.9-0.4 0.4-0.9 0.5-0.5 0.1-1-0.1-0.5-0.2-0.8-0.7-0.3-0.4-0.3-0.9c0-0.5 0.2-0.9 0.5-1.3 0.3-0.3 0.8-0.5 1.2-0.5z"/>
			<path class="s0" d="m70.8 55.8c1.4 0 2.8-0.4 3.9-1.1 1.2-0.8 2.1-1.9 2.6-3.2 0.5-1.3 0.7-2.7 0.4-4-0.3-1.4-0.9-2.6-1.9-3.6-1-1-2.2-1.6-3.6-1.9-1.4-0.3-2.8-0.2-4 0.4-1.3 0.5-2.4 1.4-3.2 2.6-0.8 1.1-1.2 2.5-1.2 3.8 0 1.9 0.8 3.7 2.1 5 1.3 1.3 3.1 2 4.9 2zm0-12.2c1.1 0 2.1 0.3 3 0.9 0.8 0.6 1.5 1.4 1.9 2.3 0.4 1 0.5 2.1 0.3 3.1-0.2 1-0.7 1.9-1.5 2.7-0.7 0.7-1.6 1.2-2.6 1.4-1.1 0.2-2.1 0.1-3.1-0.3-0.9-0.4-1.8-1.1-2.3-1.9-0.6-0.9-0.9-1.9-0.9-3 0-1.3 0.5-2.7 1.5-3.7 1-0.9 2.3-1.5 3.7-1.5z"/>
			<path class="s0" d="m98 69c0-1.4-0.5-2.8-1.2-3.9-0.8-1.2-1.9-2.1-3.2-2.6-1.2-0.5-2.6-0.7-4-0.4-1.4 0.3-2.6 0.9-3.6 1.9-1 1-1.6 2.2-1.9 3.6-0.3 1.4-0.1 2.8 0.4 4 0.5 1.3 1.4 2.4 2.6 3.2 1.1 0.8 2.5 1.2 3.9 1.2 1.8 0 3.6-0.8 4.9-2.1 1.3-1.3 2.1-3.1 2.1-4.9zm-7 5.2c-1.1 0-2.1-0.3-3-0.9-0.8-0.5-1.5-1.4-1.9-2.3-0.4-1-0.5-2-0.3-3.1 0.2-1 0.7-1.9 1.4-2.6 0.8-0.8 1.7-1.3 2.7-1.5 1.1-0.2 2.1-0.1 3.1 0.3 0.9 0.4 1.7 1.1 2.3 1.9 0.6 0.9 0.9 1.9 0.9 3 0 1.4-0.5 2.7-1.5 3.7-1 1-2.3 1.5-3.7 1.5z"/>
			<path class="s0" d="m50.7 76c1.4 0 2.8-0.4 3.9-1.2 1.2-0.8 2.1-1.9 2.6-3.2 0.5-1.2 0.7-2.6 0.4-4-0.3-1.4-1-2.6-1.9-3.6-1-1-2.3-1.6-3.6-1.9-1.4-0.3-2.8-0.1-4.1 0.4-1.2 0.5-2.3 1.4-3.1 2.6-0.8 1.1-1.2 2.5-1.2 3.9 0 1.8 0.8 3.6 2.1 4.9 1.3 1.3 3.1 2.1 4.9 2.1zm0-12.3c1.1 0 2.1 0.3 2.9 0.9 0.9 0.6 1.6 1.4 2 2.4 0.4 0.9 0.5 2 0.3 3-0.2 1-0.7 1.9-1.5 2.7-0.7 0.7-1.6 1.2-2.7 1.4-1 0.2-2 0.1-3-0.3-1-0.4-1.8-1.1-2.3-1.9-0.6-0.9-0.9-1.9-0.9-2.9 0-1.4 0.5-2.8 1.5-3.7 1-1 2.3-1.6 3.7-1.6z"/>
			<path class="s0" d="m77.8 89.1c0-1.4-0.4-2.8-1.1-3.9-0.8-1.2-1.9-2-3.2-2.6-1.3-0.5-2.7-0.6-4-0.4-1.4 0.3-2.6 1-3.6 1.9-1 1-1.7 2.3-1.9 3.6-0.3 1.4-0.2 2.8 0.4 4.1 0.5 1.2 1.4 2.3 2.5 3.1 1.2 0.8 2.6 1.2 3.9 1.2 1.9 0 3.7-0.8 5-2.1 1.3-1.3 2-3.1 2-4.9zm-12.2 0c0-1.1 0.3-2.1 0.9-2.9 0.5-0.9 1.4-1.6 2.3-2 1-0.4 2-0.5 3.1-0.3 1 0.2 1.9 0.7 2.6 1.5 0.8 0.7 1.3 1.6 1.5 2.7 0.2 1 0.1 2-0.3 3-0.4 1-1.1 1.8-1.9 2.4-0.9 0.5-1.9 0.8-3 0.8-1.4 0-2.7-0.5-3.7-1.5-1-1-1.5-2.3-1.5-3.7z"/>
			<path class="s0" d="m49.8 53.2c0-1.1 0.5-2.3 1.3-3.1 0.8-0.8 2-1.3 3.1-1.3h3.5l-1.4 1.1 1.1 1.4 3.5-2.6q0.1-0.2 0.2-0.3 0.1-0.2 0.1-0.4 0-0.2-0.1-0.4-0.1-0.2-0.2-0.3l-3.5-2.7-1.1 1.4 1.4 1.1h-3.5c-1.6 0-3.2 0.6-4.3 1.8-1.2 1.1-1.8 2.7-1.8 4.3v6.1h1.7z"/>
			<path class="s0" d="m91.8 53.2v2.6l-1-1.4-1.4 1.1 2.6 3.5q0.1 0.2 0.3 0.3 0.2 0 0.4 0 0.2 0 0.4 0 0.2-0.1 0.3-0.3l2.6-3.5-1.4-1.1-1 1.4v-2.6c0-1.6-0.7-3.2-1.8-4.3-1.2-1.2-2.7-1.8-4.3-1.8h-7v1.7h7c1.1 0 2.2 0.5 3.1 1.3 0.8 0.8 1.2 2 1.2 3.1z"/>
			<path class="s0" d="m84.3 93.3l1.1-1.4-1.4-1.1h3.5c1.6 0 3.1-0.6 4.3-1.8 1.1-1.1 1.8-2.7 1.8-4.3v-6.1h-1.8v6.1c0 1.2-0.4 2.3-1.2 3.1-0.9 0.8-2 1.3-3.1 1.3h-3.5l1.4-1.1-1.1-1.4-3.5 2.7q-0.2 0.1-0.2 0.3-0.1 0.2-0.1 0.4 0 0.2 0.1 0.4 0 0.1 0.2 0.3z"/>
			<path class="s0" d="m50.9 83.5l1.4-1.1-2.6-3.5q-0.2-0.1-0.3-0.2-0.2-0.1-0.4-0.1-0.2 0-0.4 0.1-0.2 0.1-0.3 0.2l-2.7 3.5 1.4 1.1 1.1-1.4v2.6c0 1.6 0.6 3.2 1.8 4.3 1.1 1.2 2.7 1.8 4.3 1.8h7v-1.7h-7c-1.1 0-2.3-0.5-3.1-1.3-0.8-0.8-1.3-1.9-1.3-3.1v-2.6z"/>
			<path class="s0" d="m70 48h1.7v1.7h-1.7z"/>
			<path class="s0" d="m88.3 68.1h1.8v1.7h-1.8z"/>
			<path class="s0" d="m91.8 68.1h1.8v1.7h-1.8z"/>
			<path class="s0" d="m68.2 90h1.8v1.7h-1.8z"/>
			<path class="s0" d="m71.7 90h1.8v1.7h-1.8z"/>
			<path class="s0" d="m70 86.5h1.7v1.7h-1.7z"/>
			<path class="s0" d="m48.1 69.8h1.7v1.8h-1.7z"/>
			<path class="s0" d="m51.6 69.8h1.7v1.8h-1.7z"/>
			<path class="s0" d="m48.1 66.3h1.7v1.8h-1.7z"/>
			<path class="s0" d="m51.6 66.3h1.7v1.8h-1.7z"/>
		</g>
	</g>
</svg>