<svg version="1.2" xmlns="http://www.w3.org/2000/svg" viewBox="0 0 138 137" width="138" height="137">
	<title>pp-icon-4</title>
	<style>
		.s0 { fill: #40ffdc } 
		.s1 { fill: #fff100 } 
		.s2 { fill: #ff3b00 } 
		.s3 { fill: #000000 } 
	</style>
	<path class="s0" d="m98.4 38.2h-58.1v8.1h58.1z"/>
	<path class="s1" d="m66.8 81.7h-7.7v13.8h7.7z"/>
	<path class="s2" d="m54 77.4h-7.7v18.1h7.7z"/>
	<path class="s2" d="m79.6 70.9h-7.8v24.6h7.8z"/>
	<path class="s1" d="m92.4 63h-7.8v32.5h7.8z"/>
	<path class="s3" d="m99.2 46.3h-1.6v-7.1h-56.5v7.1h-1.7v-8.1c0-0.5 0.4-0.9 0.9-0.9h58.1c0.5 0 0.8 0.4 0.8 0.9z"/>
	<path class="s3" d="m46.6 41.3h-1.7v1.9h1.7z"/>
	<path class="s3" d="m50.6 41.3h-1.7v1.9h1.7z"/>
	<path class="s3" d="m54.6 41.3h-1.7v1.9h1.7z"/>
	<path class="s3" d="m94 41.3h-27.9v1.9h27.9z"/>
	<path class="s3" d="m98.4 96.5h-6v-1.9h5.2v-47.4h-56.5v47.4h5.2v1.9h-6c-0.5 0-0.9-0.4-0.9-1v-49.2c0-0.5 0.4-1 0.9-1h58.1c0.5 0 0.8 0.5 0.8 1v49.2c0 0.6-0.3 1-0.8 1z"/>
	<path class="s3" d="m84.6 94.6h-5v1.9h5z"/>
	<path class="s3" d="m71.8 94.6h-5v1.9h5z"/>
	<path class="s3" d="m59.1 94.6h-5.1v1.9h5.1z"/>
	<path class="s3" d="m54 96.5h-7.7c-0.5 0-0.9-0.4-0.9-1v-18.1c0-0.5 0.4-0.9 0.9-0.9h7.7c0.5 0 0.9 0.4 0.9 0.9v18.1c0 0.6-0.4 1-0.9 1zm-6.9-1.9h6.1v-16.2h-6.1z"/>
	<path class="s3" d="m66.8 96.5h-7.7c-0.5 0-0.9-0.4-0.9-1v-13.8c0-0.5 0.4-0.9 0.9-0.9h7.7c0.5 0 0.9 0.4 0.9 0.9v13.8c0 0.6-0.4 1-0.9 1zm-6.9-1.9h6.1v-11.9h-6.1z"/>
	<path class="s3" d="m79.6 96.5h-7.8c-0.4 0-0.8-0.4-0.8-1v-24.6c0-0.5 0.4-0.9 0.8-0.9h7.8c0.5 0 0.8 0.4 0.8 0.9v24.6c0 0.6-0.3 1-0.8 1zm-6.9-1.9h6.1v-22.7h-6.1z"/>
	<path class="s3" d="m92.4 96.5h-7.8c-0.4 0-0.8-0.4-0.8-1v-32.5c0-0.5 0.4-0.9 0.8-0.9h7.8c0.5 0 0.8 0.4 0.8 0.9v32.5c0 0.6-0.3 1-0.8 1zm-6.9-1.9h6.1v-30.6h-6.1v30.6z"/>
	<path class="s3" d="m54.9 52.4h-9.1v1.9h9.1z"/>
	<path class="s3" d="m61.3 56.7h-15.5v1.9h15.5z"/>
	<path class="s3" d="m92.4 52.4h-12.8v1.9h12.8z"/>
</svg>