<svg version="1.2" xmlns="http://www.w3.org/2000/svg" viewBox="0 0 138 138" width="138" height="138">
	<title>pp-icon-1</title>
	<style>
		.s0 { fill: #fbec00 } 
		.s1 { fill: #ff3c00 } 
		.s2 { fill: #43ffdc } 
		.s3 { fill: #000000 } 
	</style>
	<path class="s0" d="m46.8 51.1c2.2 0 3.9-1.7 3.9-3.8 0-2.1-1.7-3.8-3.9-3.8-2.1 0-3.8 1.7-3.8 3.8 0 2.1 1.7 3.8 3.8 3.8z"/>
	<path class="s0" d="m53.6 58.8h-13.5v-1.9c0-3.2 2.6-5.8 5.8-5.8h1.9c3.2 0 5.8 2.6 5.8 5.8z"/>
	<path class="s1" d="m60.3 51.1c2.1 0 3.9-1.7 3.9-3.8 0-2.1-1.8-3.8-3.9-3.8-2.1 0-3.8 1.7-3.8 3.8 0 2.1 1.7 3.8 3.8 3.8z"/>
	<path class="s1" d="m67 58.8h-13.4v-1.9c0-3.2 2.6-5.8 5.7-5.8h2c3.2 0 5.7 2.6 5.7 5.8z"/>
	<path class="s0" d="m73.8 51.1c2.1 0 3.8-1.7 3.8-3.8 0-2.1-1.7-3.8-3.8-3.8-2.1 0-3.9 1.7-3.9 3.8 0 2.1 1.8 3.8 3.9 3.8z"/>
	<path class="s0" d="m80.5 58.8h-13.5v-1.9c0-3.2 2.6-5.8 5.8-5.8h2c3.1 0 5.7 2.6 5.7 5.8z"/>
	<path class="s2" d="m40.1 62.6v4.7l17.3 12.4v6.7l5.8-2.9v-3.8l17.3-12.4v-4.7z"/>
	<path class="s0" d="m89.2 100.7c4.8 0 8.7-3.8 8.7-8.6 0-4.7-3.9-8.6-8.7-8.6-4.8 0-8.7 3.9-8.7 8.6 0 4.8 3.9 8.6 8.7 8.6z"/>
	<path class="s3" d="m40.1 59.7h40.4c0.6 0 1-0.4 1-0.9v-1.9c0-2.9-1.8-5.3-4.3-6.2 0.9-0.9 1.4-2.1 1.4-3.4 0-2.6-2.2-4.7-4.8-4.7-2.7 0-4.8 2.1-4.8 4.7 0 1.3 0.5 2.5 1.4 3.4-1.4 0.5-2.6 1.5-3.4 2.7-0.7-1.2-1.9-2.2-3.3-2.7 0.9-0.9 1.4-2.1 1.4-3.4 0-2.6-2.1-4.7-4.8-4.7-2.6 0-4.8 2.1-4.8 4.7 0 1.3 0.5 2.5 1.4 3.4-1.4 0.5-2.6 1.5-3.3 2.7-0.8-1.2-1.9-2.2-3.3-2.7 0.8-0.9 1.3-2.1 1.3-3.4 0-2.6-2.1-4.7-4.8-4.7-2.6 0-4.8 2.1-4.8 4.7 0 1.3 0.5 2.5 1.4 3.4-2.5 0.9-4.3 3.3-4.3 6.2v1.9c0 0.5 0.5 0.9 1 0.9zm33.7-15.2c1.6 0 2.9 1.2 2.9 2.8 0 1.6-1.3 2.9-2.9 2.9-1.6 0-2.9-1.3-2.9-2.9 0-1.6 1.3-2.8 2.9-2.8zm-1 7.6h2c2.6 0 4.8 2.1 4.8 4.8v0.9h-11.6v-0.9c0-2.7 2.2-4.8 4.8-4.8zm-12.5-7.6c1.6 0 2.9 1.2 2.9 2.8 0 1.6-1.3 2.9-2.9 2.9-1.6 0-2.9-1.3-2.9-2.9 0-1.6 1.3-2.8 2.9-2.8zm-1 7.6h2c2.6 0 4.8 2.1 4.8 4.8v0.9h-11.6v-0.9c0-2.7 2.2-4.8 4.8-4.8zm-12.5-7.6c1.6 0 2.9 1.2 2.9 2.8 0 1.6-1.3 2.9-2.9 2.9-1.6 0-2.9-1.3-2.9-2.9 0-1.6 1.3-2.8 2.9-2.8zm-5.7 12.4c0-2.7 2.1-4.8 4.8-4.8h1.9c2.6 0 4.8 2.1 4.8 4.8v0.9h-11.5z"/>
	<path class="s3" d="m64.2 83.5v-3.3l16.9-12.1c0.2-0.2 0.4-0.5 0.4-0.8v-4.7c0-0.5-0.4-1-1-1h-40.4c-0.5 0-1 0.5-1 1v4.7c0 0.3 0.2 0.6 0.4 0.8l17 12.1v6.2c0 0.3 0.1 0.6 0.4 0.8q0.3 0.2 0.5 0.2 0.2 0 0.5-0.1l5.7-2.9c0.4-0.2 0.6-0.5 0.6-0.9zm-2-3.8v3.3l-3.8 1.9v-5.2c0-0.3-0.2-0.6-0.4-0.7l-14.9-10.7h5.7v-1.9h-7.7v-2.9h38.5v3.4l-17 12.1c-0.2 0.1-0.4 0.4-0.4 0.7z"/>
	<path class="s3" d="m50.7 66.4h1.9v1.9h-1.9z"/>
	<path class="s3" d="m54.5 66.4h2v1.9h-2z"/>
	<path class="s3" d="m58.4 66.4h1.9v1.9h-1.9z"/>
	<path class="s3" d="m89.2 82.6c-5.3 0-9.6 4.3-9.6 9.5 0 5.3 4.3 9.6 9.6 9.6 5.3 0 9.6-4.3 9.6-9.6 0-5.2-4.3-9.5-9.6-9.5zm0 17.2c-4.3 0-7.7-3.5-7.7-7.7 0-4.2 3.4-7.6 7.7-7.6 4.2 0 7.7 3.4 7.7 7.6 0 4.2-3.5 7.7-7.7 7.7z"/>
	<path class="s3" d="m76.4 88.6l-1.4 1.3 1.3 1.3h-11.2c-1.6 0-2.9-1.3-2.9-2.9v-1.9h-1.9v1.9c0 2.6 2.2 4.8 4.8 4.8h11.2l-1.3 1.2 1.4 1.4 2.9-2.9q0.3-0.3 0.3-0.7 0-0.4-0.3-0.6z"/>
	<path class="s3" d="m89.2 89.3c0.5 0 1 0.4 1 0.9h1.9c0-1.2-0.8-2.3-1.9-2.7v-1.1h-2v1.1c-1.1 0.4-1.9 1.5-1.9 2.7 0 1.6 1.3 2.9 2.9 2.9 0.5 0 1 0.4 1 0.9 0 0.6-0.5 1-1 1-0.5 0-1-0.4-1-1h-1.9c0 1.3 0.8 2.3 1.9 2.7v1.1h2v-1.1c1.1-0.4 1.9-1.4 1.9-2.7 0-1.5-1.3-2.8-2.9-2.8-0.5 0-1-0.5-1-1 0-0.5 0.5-0.9 1-0.9z"/>
</svg>