<svg version="1.2" xmlns="http://www.w3.org/2000/svg" viewBox="0 0 138 138" width="138" height="138">
	<title>pp-icon-5</title>
	<defs>
		<clipPath clipPathUnits="userSpaceOnUse" id="cp1">
			<path d="m45 43h52v52h-52z"/>
		</clipPath>
	</defs>
	<style>
		.s0 { fill: #faf7f5 } 
		.s1 { fill: #fbec00 } 
		.s2 { fill: #43ffdc } 
		.s3 { fill: #ffffff } 
		.s4 { fill: #ff3c00 } 
		.s5 { fill: #000000 } 
	</style>
	<g id="Clip-Path" clip-path="url(#cp1)">
		<g>
			<path class="s0" d="m46 44.8h50v31.4h-50z"/>
			<path class="s1" d="m51.4 49.9h15v12.6h-15z"/>
			<path class="s2" d="m77.6 82.4v5.8h6.4v5h-26v-5h6.4v-5.8h-18.4v-6.2h50v6.2z"/>
			<path class="s3" d="m88.3 93.2h-11.7c-1.1 0-2-0.9-2-2v-20.3c0-1.1 0.9-2 2-2h11.7c1.1 0 2 0.9 2 2v20.3c0 1.1-0.9 2-2 2z"/>
			<path class="s4" d="m78.4 75h8.1v8.1h-8.1z"/>
			<path class="s5" d="m51.4 63.5h15c0.6 0 1-0.4 1-1v-12.6c0-0.6-0.4-1-1-1h-15c-0.6 0-1 0.4-1 1v12.6c0 0.6 0.4 1 1 1zm1-12.6h13v10.6h-13z"/>
			<path class="s5" d="m74 50.9h14.1c0.6 0 1-0.5 1-1 0-0.6-0.4-1-1-1h-14.1c-0.6 0-1.1 0.4-1.1 1 0 0.5 0.5 1 1.1 1z"/>
			<path class="s5" d="m88.1 59.3c0.6 0 1-0.4 1-1 0-0.6-0.4-1-1-1h-14.1c-0.6 0-1.1 0.4-1.1 1 0 0.6 0.5 1 1.1 1z"/>
			<path class="s5" d="m90.3 53.1h-18.6c-0.5 0-1 0.4-1 1 0 0.6 0.5 1 1 1h18.6c0.6 0 1.1-0.4 1.1-1 0-0.6-0.5-1-1.1-1z"/>
			<path class="s5" d="m70.7 62.5c0 0.6 0.5 1 1 1h18.6c0.6 0 1.1-0.4 1.1-1 0-0.5-0.5-1-1.1-1h-18.6c-0.5 0-1 0.5-1 1z"/>
			<path class="s5" d="m51.4 68.6h11.5c0.5 0 1-0.5 1-1 0-0.6-0.5-1.1-1-1.1h-11.5c-0.6 0-1 0.5-1 1.1 0 0.5 0.4 1 1 1z"/>
			<path class="s5" d="m50.4 71.8c0 0.5 0.4 1 1 1h17.4c0.6 0 1.1-0.5 1.1-1 0-0.6-0.5-1-1.1-1h-17.4c-0.6 0-1 0.4-1 1z"/>
			<path class="s5" d="m96 43.8h-20.4c-0.6 0-1 0.4-1 1 0 0.6 0.4 1 1 1h19.4v29.4h-3.6v-4.3c0-1.6-1.4-3-3.1-3h-11.7c-1.7 0-3 1.4-3 3v4.3h-26.6v-29.4h19.4c0.6 0 1-0.4 1-1 0-0.6-0.4-1-1-1h-20.4c-0.5 0-1 0.4-1 1v37.6c0 0.6 0.5 1.1 1 1.1h17.4v3.7h-5.4c-0.6 0-1 0.5-1 1v5c0 0.6 0.4 1 1 1h18.6q0 0 0 0h11.7c1.7 0 3.1-1.3 3.1-3v-7.7h4.6c0.5 0 1-0.5 1-1.1v-37.6c0-0.6-0.5-1-1-1zm-49 33.4h26.6v4.2h-26.6zm18.5 6.3h8.1v3.7h-8.1zm-6.5 5.9h14.6v1.9q0 0.5 0.1 1h-14.7zm30.3 1.9c0 0.6-0.4 1-1 1h-11.7q0 0 0 0c-0.6 0-1-0.5-1-1v-20.2c0-0.6 0.4-1.1 1-1.1h1.9c0 0.6 0.4 1.1 1 1.1h5.9c0.6 0 1.1-0.5 1.1-1.1h1.8c0.6 0 1 0.5 1 1.1zm2.1-9.8v-4.2h3.6v4.2z"/>
			<path class="s5" d="m71 45.8c0.6 0 1-0.4 1-1 0-0.6-0.4-1-1-1-0.6 0-1 0.4-1 1 0 0.6 0.4 1 1 1z"/>
			<path class="s5" d="m86.5 73.9h-8.1c-0.6 0-1 0.5-1 1.1v8.1c0 0.6 0.4 1 1 1h8.1c0.6 0 1-0.4 1-1v-8.1c0-0.6-0.4-1.1-1-1.1zm-1 8.2h-6.1v-6.1h6.1z"/>
			<path class="s5" d="m86.5 86.2h-8.1c-0.6 0-1 0.4-1 1 0 0.5 0.4 1 1 1h8.1c0.6 0 1-0.5 1-1 0-0.6-0.4-1-1-1z"/>
		</g>
	</g>
</svg>